<svg width="24" height="24" viewBox="0 0 24 24" fill="none" xmlns="http://www.w3.org/2000/svg">
<path d="M9 21H5C4.45 21 3.97933 20.8043 3.588 20.413C3.19667 20.0217 3.00067 19.5507 3 19V12C3 10.75 3.23767 9.57933 3.713 8.488C4.18833 7.39667 4.82967 6.44667 5.637 5.638C6.44433 4.82933 7.39433 4.18767 8.487 3.713C9.57967 3.23833 10.7507 3.00067 12 3C13.2493 2.99933 14.4203 3.237 15.513 3.713C16.6057 4.189 17.5557 4.83033 18.363 5.637C19.1703 6.44367 19.812 7.39367 20.288 8.487C20.764 9.58033 21.0013 10.7513 21 12V19C21 19.55 20.8043 20.021 20.413 20.413C20.0217 20.805 19.5507 21.0007 19 21H15V13H19V12C19 10.05 18.321 8.396 16.963 7.038C15.605 5.68 13.9507 5.00067 12 5C10.0493 4.99933 8.39533 5.67867 7.038 7.038C5.68067 8.39733 5.00133 10.0513 5 12V13H9V21Z" fill="#313237"/>
</svg>
